# xmcd
#
# Track frame offsets:
#	150
#	12063
#	24029
#	46497
#	58802
#	75128
#	86388
#	101172
#	117844
#	126273
#	142796
#
# Disc length: 2118 seconds
#
# Revision: 1
# Processed by: cddbd v1.5.2PL0 Copyright (c) Steve Scherf et al.
# Submitted via: audiograbber 1.83.01
#
DISCID=7808440b
DTITLE=Nedski and Mojo - Nothing More
DYEAR=2010
DGENRE=Bluegrass
TTITLE0=Another Way To Get to You
TTITLE1=Take The Good With The Bad
TTITLE2=Ginny Danced
TTITLE3=Broken Windows
TTITLE4=Push
TTITLE5=Smartest Man in Town
TTITLE6=Who, What, Where, When, Whys of Love
TTITLE7=I Ran To You
TTITLE8=Ladies On The Train
TTITLE9=Nyquil Blues
TTITLE10=Save It For Another Day
EXTD=
EXTT0=
EXTT1=
EXTT2=
EXTT3=
EXTT4=
EXTT5=
EXTT6=
EXTT7=
EXTT8=
EXTT9=
EXTT10=
PLAYORDER=
